# xmcd
#
# Track frame offsets:
#	150
#	14725
#	32690
#	49745
#	67873
#	82177
#	99384
#	114001
#	126989
#	147457
#	167059
#	180738
#
# Disc length: 2726 seconds
#
# Revision: 1
# Processed by: cddbd v1.5.2PL0 Copyright (c) Steve Scherf et al.
# Submitted via: audiograbber 1.83.01
#
DISCID=a10aa40c
DTITLE=Johnny Reid - A Place Called Love
DYEAR=2010
DGENRE=Country
TTITLE0=You Gave My Heart A Home
TTITLE1=Today I'm Gonna Try And Change The World
TTITLE2=That Man Is Me
TTITLE3=Hands Of A Working Man
TTITLE4=Good People
TTITLE5=Doesn't Get Better Than You
TTITLE6=Love Thing
TTITLE7=Out Of The Blue
TTITLE8=Tell Me Margaret
TTITLE9=This Is Not Goodbye
TTITLE10=Let's Go Higher
TTITLE11=A Place Called Love
EXTD=
EXTT0=
EXTT1=
EXTT2=
EXTT3=
EXTT4=
EXTT5=
EXTT6=
EXTT7=
EXTT8=
EXTT9=
EXTT10=
EXTT11=
PLAYORDER=
